{
  "accessors": [
    {
      "bufferView": 2,
      "componentType": 5126,
      "count": 24896,
      "max": [
        0.8805476427078247,
        0.8370986580848694,
        0.9631796479225159
      ],
      "min": [
        -0.8805505633354187,
        -0.8506872653961182,
        -0.9631796479225159
      ],
      "type": "VEC3"
    },
    {
      "bufferView": 2,
      "byteOffset": 298752,
      "componentType": 5126,
      "count": 24896,
      "type": "VEC3"
    },
    {
      "bufferView": 3,
      "componentType": 5126,
      "count": 24896,
      "type": "VEC4"
    },
    {
      "bufferView": 1,
      "componentType": 5126,
      "count": 24896,
      "type": "VEC2"
    },
    {
      "bufferView": 0,
      "componentType": 5125,
      "count": 147828,
      "type": "SCALAR"
    },
    {
      "bufferView": 2,
      "byteOffset": 597504,
      "componentType": 5126,
      "count": 327,
      "max": [
        -0.12255814671516418,
        -0.6324562430381775,
        -0.13752521574497223
      ],
      "min": [
        -0.27586790919303894,
        -0.7297354936599731,
        -0.3024160861968994
      ],
      "type": "VEC3"
    },
    {
      "bufferView": 2,
      "byteOffset": 601428,
      "componentType": 5126,
      "count": 327,
      "type": "VEC3"
    },
    {
      "bufferView": 1,
      "byteOffset": 199168,
      "componentType": 5126,
      "count": 327,
      "type": "VEC2"
    },
    {
      "bufferView": 0,
      "byteOffset": 591312,
      "componentType": 5125,
      "count": 1278,
      "type": "SCALAR"
    },
    {
      "bufferView": 2,
      "byteOffset": 605352,
      "componentType": 5126,
      "count": 559,
      "max": [
        -0.18489205837249756,
        -0.38777273893356323,
        0.4618822932243347
      ],
      "min": [
        -0.5536234974861145,
        -0.7585603594779968,
        0.09060811996459961
      ],
      "type": "VEC3"
    },
    {
      "bufferView": 2,
      "byteOffset": 612060,
      "componentType": 5126,
      "count": 559,
      "type": "VEC3"
    },
    {
      "bufferView": 1,
      "byteOffset": 201784,
      "componentType": 5126,
      "count": 559,
      "type": "VEC2"
    },
    {
      "bufferView": 0,
      "byteOffset": 596424,
      "componentType": 5125,
      "count": 2880,
      "type": "SCALAR"
    },
    {
      "bufferView": 2,
      "byteOffset": 618768,
      "componentType": 5126,
      "count": 559,
      "max": [
        0.5548408031463623,
        -0.3881990313529968,
        0.46140843629837036
      ],
      "min": [
        0.18367494642734528,
        -0.7581340074539185,
        0.09108202159404755
      ],
      "type": "VEC3"
    },
    {
      "bufferView": 2,
      "byteOffset": 625476,
      "componentType": 5126,
      "count": 559,
      "type": "VEC3"
    },
    {
      "bufferView": 1,
      "byteOffset": 206256,
      "componentType": 5126,
      "count": 559,
      "type": "VEC2"
    },
    {
      "bufferView": 0,
      "byteOffset": 607944,
      "componentType": 5125,
      "count": 2880,
      "type": "SCALAR"
    },
    {
      "bufferView": 2,
      "byteOffset": 632184,
      "componentType": 5126,
      "count": 332,
      "max": [
        -0.3038611114025116,
        -0.6243402361869812,
        -0.1720852553844452
      ],
      "min": [
        -0.45717090368270874,
        -0.7216193675994873,
        -0.33697614073753357
      ],
      "type": "VEC3"
    },
    {
      "bufferView": 2,
      "byteOffset": 636168,
      "componentType": 5126,
      "count": 332,
      "type": "VEC3"
    },
    {
      "bufferView": 1,
      "byteOffset": 210728,
      "componentType": 5126,
      "count": 332,
      "type": "VEC2"
    },
    {
      "bufferView": 0,
      "byteOffset": 619464,
      "componentType": 5125,
      "count": 1272,
      "type": "SCALAR"
    },
    {
      "bufferView": 2,
      "byteOffset": 640152,
      "componentType": 5126,
      "count": 327,
      "max": [
        0.07036679983139038,
        -0.6324562430381775,
        -0.1515493392944336
      ],
      "min": [
        -0.08294299244880676,
        -0.7297354936599731,
        -0.316440224647522
      ],
      "type": "VEC3"
    },
    {
      "bufferView": 2,
      "byteOffset": 644076,
      "componentType": 5126,
      "count": 327,
      "type": "VEC3"
    },
    {
      "bufferView": 1,
      "byteOffset": 213384,
      "componentType": 5126,
      "count": 327,
      "type": "VEC2"
    },
    {
      "bufferView": 0,
      "byteOffset": 624552,
      "componentType": 5125,
      "count": 1281,
      "type": "SCALAR"
    },
    {
      "bufferView": 2,
      "byteOffset": 648000,
      "componentType": 5126,
      "count": 326,
      "max": [
        0.26561614871025085,
        -0.6324562430381775,
        -0.14449840784072876
      ],
      "min": [
        0.11230634897947311,
        -0.7297354936599731,
        -0.30938929319381714
      ],
      "type": "VEC3"
    },
    {
      "bufferView": 2,
      "byteOffset": 651912,
      "componentType": 5126,
      "count": 326,
      "type": "VEC3"
    },
    {
      "bufferView": 1,
      "byteOffset": 216000,
      "componentType": 5126,
      "count": 326,
      "type": "VEC2"
    },
    {
      "bufferView": 0,
      "byteOffset": 629676,
      "componentType": 5125,
      "count": 1278,
      "type": "SCALAR"
    },
    {
      "bufferView": 2,
      "byteOffset": 655824,
      "componentType": 5126,
      "count": 332,
      "max": [
        0.44079023599624634,
        -0.6196441054344177,
        -0.16541796922683716
      ],
      "min": [
        0.2874804735183716,
        -0.7169233560562134,
        -0.33030885457992554
      ],
      "type": "VEC3"
    },
    {
      "bufferView": 2,
      "byteOffset": 659808,
      "componentType": 5126,
      "count": 332,
      "type": "VEC3"
    },
    {
      "bufferView": 1,
      "byteOffset": 218608,
      "componentType": 5126,
      "count": 332,
      "type": "VEC2"
    },
    {
      "bufferView": 0,
      "byteOffset": 634788,
      "componentType": 5125,
      "count": 1272,
      "type": "SCALAR"
    },
    {
      "bufferView": 2,
      "byteOffset": 663792,
      "componentType": 5126,
      "count": 324,
      "max": [
        -0.0908409059047699,
        -0.5994255542755127,
        -0.2857520878314972
      ],
      "min": [
        -0.20452076196670532,
        -0.6715585589408875,
        -0.40801939368247986
      ],
      "type": "VEC3"
    },
    {
      "bufferView": 2,
      "byteOffset": 667680,
      "componentType": 5126,
      "count": 324,
      "type": "VEC3"
    },
    {
      "bufferView": 1,
      "byteOffset": 221264,
      "componentType": 5126,
      "count": 324,
      "type": "VEC2"
    },
    {
      "bufferView": 0,
      "byteOffset": 639876,
      "componentType": 5125,
      "count": 1272,
      "type": "SCALAR"
    },
    {
      "bufferView": 2,
      "byteOffset": 671568,
      "componentType": 5126,
      "count": 327,
      "max": [
        -0.2252778261899948,
        -0.5934074521064758,
        -0.26012569665908813
      ],
      "min": [
        -0.33895766735076904,
        -0.6655404567718506,
        -0.3823930025100708
      ],
      "type": "VEC3"
    },
    {
      "bufferView": 2,
      "byteOffset": 675492,
      "componentType": 5126,
      "count": 327,
      "type": "VEC3"
    },
    {
      "bufferView": 1,
      "byteOffset": 223856,
      "componentType": 5126,
      "count": 327,
      "type": "VEC2"
    },
    {
      "bufferView": 0,
      "byteOffset": 644964,
      "componentType": 5125,
      "count": 1278,
      "type": "SCALAR"
    },
    {
      "bufferView": 2,
      "byteOffset": 679416,
      "componentType": 5126,
      "count": 327,
      "max": [
        0.05221375823020935,
        -0.5994255542755127,
        -0.27535319328308105
      ],
      "min": [
        -0.06146610528230667,
        -0.6715585589408875,
        -0.3976204991340637
      ],
      "type": "VEC3"
    },
    {
      "bufferView": 2,
      "byteOffset": 683340,
      "componentType": 5126,
      "count": 327,
      "type": "VEC3"
    },
    {
      "bufferView": 1,
      "byteOffset": 226472,
      "componentType": 5126,
      "count": 327,
      "type": "VEC2"
    },
    {
      "bufferView": 0,
      "byteOffset": 650076,
      "componentType": 5125,
      "count": 1278,
      "type": "SCALAR"
    },
    {
      "bufferView": 2,
      "byteOffset": 687264,
      "componentType": 5126,
      "count": 325,
      "max": [
        0.196991965174675,
        -0.5994255542755127,
        -0.2805814743041992
      ],
      "min": [
        0.08331210911273956,
        -0.6715585589408875,
        -0.4028487801551819
      ],
      "type": "VEC3"
    },
    {
      "bufferView": 2,
      "byteOffset": 691164,
      "componentType": 5126,
      "count": 325,
      "type": "VEC3"
    },
    {
      "bufferView": 1,
      "byteOffset": 229088,
      "componentType": 5126,
      "count": 325,
      "type": "VEC2"
    },
    {
      "bufferView": 0,
      "byteOffset": 655188,
      "componentType": 5125,
      "count": 1278,
      "type": "SCALAR"
    },
    {
      "bufferView": 2,
      "byteOffset": 695064,
      "componentType": 5126,
      "count": 328,
      "max": [
        0.32688426971435547,
        -0.5899252891540527,
        -0.26506954431533813
      ],
      "min": [
        0.21320444345474243,
        -0.6620582938194275,
        -0.3873368501663208
      ],
      "type": "VEC3"
    },
    {
      "bufferView": 2,
      "byteOffset": 699000,
      "componentType": 5126,
      "count": 328,
      "type": "VEC3"
    },
    {
      "bufferView": 1,
      "byteOffset": 231688,
      "componentType": 5126,
      "count": 328,
      "type": "VEC2"
    },
    {
      "bufferView": 0,
      "byteOffset": 660300,
      "componentType": 5125,
      "count": 1272,
      "type": "SCALAR"
    }
  ],
  "asset": {
    "generator": "fab-model-conversion",
    "version": "2.0"
  },
  "bufferViews": [
    {
      "buffer": 0,
      "byteLength": 665388,
      "target": 34963
    },
    {
      "buffer": 0,
      "byteLength": 234312,
      "byteOffset": 665388,
      "byteStride": 8,
      "target": 34962
    },
    {
      "buffer": 0,
      "byteLength": 702936,
      "byteOffset": 899700,
      "byteStride": 12,
      "target": 34962
    },
    {
      "buffer": 0,
      "byteLength": 398336,
      "byteOffset": 1602636,
      "byteStride": 16,
      "target": 34962
    }
  ],
  "buffers": [
    {
      "byteLength": 2000972,
      "uri": "scene.bin"
    }
  ],
  "extensionsUsed": [
    "KHR_materials_specular"
  ],
  "images": [
    {
      "uri": "textures/Material.004_baseColor.png"
    },
    {
      "uri": "textures/Material.004_metallicRoughness.png"
    },
    {
      "uri": "textures/Material.004_normal.png"
    },
    {
      "uri": "textures/Material.002_baseColor.jpeg"
    },
    {
      "uri": "textures/Material.002_metallicRoughness.jpeg"
    },
    {
      "uri": "textures/Material.001_baseColor.jpeg"
    }
  ],
  "materials": [
    {
      "doubleSided": true,
      "extensions": {
        "KHR_materials_specular": {
          "specularColorFactor": [
            1.0,
            1.0,
            1.0
          ],
          "specularFactor": 0.23009593934000558
        }
      },
      "name": "Material.004",
      "normalTexture": {
        "index": 2
      },
      "occlusionTexture": {
        "index": 1
      },
      "pbrMetallicRoughness": {
        "baseColorTexture": {
          "index": 0
        },
        "metallicFactor": 0.028952469188477523,
        "metallicRoughnessTexture": {
          "index": 1
        },
        "roughnessFactor": 0.5714303129304774
      }
    },
    {
      "doubleSided": true,
      "name": "Material.002",
      "pbrMetallicRoughness": {
        "baseColorTexture": {
          "index": 3
        },
        "metallicRoughnessTexture": {
          "index": 4
        },
        "roughnessFactor": 0.1386670892711292
      }
    },
    {
      "doubleSided": true,
      "name": "Material.001",
      "pbrMetallicRoughness": {
        "baseColorTexture": {
          "index": 5
        },
        "metallicFactor": 0.0,
        "roughnessFactor": 0.0
      }
    }
  ],
  "meshes": [
    {
      "name": "Cube_Material.004_0",
      "primitives": [
        {
          "attributes": {
            "NORMAL": 1,
            "POSITION": 0,
            "TANGENT": 2,
            "TEXCOORD_0": 3
          },
          "indices": 4,
          "material": 0,
          "mode": 4
        }
      ]
    },
    {
      "name": "Cube.002_Material.002_0",
      "primitives": [
        {
          "attributes": {
            "NORMAL": 6,
            "POSITION": 5,
            "TEXCOORD_0": 7
          },
          "indices": 8,
          "material": 1,
          "mode": 4
        }
      ]
    },
    {
      "name": "Sphere_Material.001_0",
      "primitives": [
        {
          "attributes": {
            "NORMAL": 10,
            "POSITION": 9,
            "TEXCOORD_0": 11
          },
          "indices": 12,
          "material": 2,
          "mode": 4
        }
      ]
    },
    {
      "name": "Sphere.001_Material.001_0",
      "primitives": [
        {
          "attributes": {
            "NORMAL": 14,
            "POSITION": 13,
            "TEXCOORD_0": 15
          },
          "indices": 16,
          "material": 2,
          "mode": 4
        }
      ]
    },
    {
      "name": "Cube.001_Material.002_0",
      "primitives": [
        {
          "attributes": {
            "NORMAL": 18,
            "POSITION": 17,
            "TEXCOORD_0": 19
          },
          "indices": 20,
          "material": 1,
          "mode": 4
        }
      ]
    },
    {
      "name": "Cube.003_Material.002_0",
      "primitives": [
        {
          "attributes": {
            "NORMAL": 22,
            "POSITION": 21,
            "TEXCOORD_0": 23
          },
          "indices": 24,
          "material": 1,
          "mode": 4
        }
      ]
    },
    {
      "name": "Cube.004_Material.002_0",
      "primitives": [
        {
          "attributes": {
            "NORMAL": 26,
            "POSITION": 25,
            "TEXCOORD_0": 27
          },
          "indices": 28,
          "material": 1,
          "mode": 4
        }
      ]
    },
    {
      "name": "Cube.005_Material.002_0",
      "primitives": [
        {
          "attributes": {
            "NORMAL": 30,
            "POSITION": 29,
            "TEXCOORD_0": 31
          },
          "indices": 32,
          "material": 1,
          "mode": 4
        }
      ]
    },
    {
      "name": "Cube.006_Material.002_0",
      "primitives": [
        {
          "attributes": {
            "NORMAL": 34,
            "POSITION": 33,
            "TEXCOORD_0": 35
          },
          "indices": 36,
          "material": 1,
          "mode": 4
        }
      ]
    },
    {
      "name": "Cube.007_Material.002_0",
      "primitives": [
        {
          "attributes": {
            "NORMAL": 38,
            "POSITION": 37,
            "TEXCOORD_0": 39
          },
          "indices": 40,
          "material": 1,
          "mode": 4
        }
      ]
    },
    {
      "name": "Cube.008_Material.002_0",
      "primitives": [
        {
          "attributes": {
            "NORMAL": 42,
            "POSITION": 41,
            "TEXCOORD_0": 43
          },
          "indices": 44,
          "material": 1,
          "mode": 4
        }
      ]
    },
    {
      "name": "Cube.009_Material.002_0",
      "primitives": [
        {
          "attributes": {
            "NORMAL": 46,
            "POSITION": 45,
            "TEXCOORD_0": 47
          },
          "indices": 48,
          "material": 1,
          "mode": 4
        }
      ]
    },
    {
      "name": "Cube.010_Material.002_0",
      "primitives": [
        {
          "attributes": {
            "NORMAL": 50,
            "POSITION": 49,
            "TEXCOORD_0": 51
          },
          "indices": 52,
          "material": 1,
          "mode": 4
        }
      ]
    }
  ],
  "nodes": [
    {
      "children": [
        1
      ],
      "matrix": [
        1.0,
        0.0,
        0.0,
        0.0,
        0.0,
        2.220446049250313e-16,
        -1.0,
        0.0,
        0.0,
        1.0,
        2.220446049250313e-16,
        0.0,
        0.0,
        0.0,
        0.0,
        1.0
      ],
      "name": "Sketchfab_model"
    },
    {
      "children": [
        2
      ],
      "matrix": [
        0.009999999776482582,
        0.0,
        0.0,
        0.0,
        0.0,
        0.0,
        0.009999999776482582,
        0.0,
        0.0,
        -0.009999999776482582,
        0.0,
        0.0,
        0.0,
        0.0,
        0.0,
        1.0
      ],
      "name": "d3b26d219a61478faf0b69e720deb786.fbx"
    },
    {
      "children": [
        3,
        5,
        7,
        9,
        11,
        13,
        15,
        17,
        19,
        21,
        23,
        25,
        27
      ],
      "name": "RootNode"
    },
    {
      "children": [
        4
      ],
      "matrix": [
        100.0,
        0.0,
        0.0,
        0.0,
        0.0,
        -1.629206793918314e-05,
        -99.99999999999868,
        0.0,
        0.0,
        99.99999999999868,
        -1.629206793918314e-05,
        0.0,
        0.0,
        0.0,
        0.0,
        1.0
      ],
      "name": "Cube"
    },
    {
      "mesh": 0,
      "name": "Cube_Material.004_0"
    },
    {
      "children": [
        6
      ],
      "matrix": [
        100.0,
        0.0,
        0.0,
        0.0,
        0.0,
        -1.629206793918314e-05,
        -99.99999999999868,
        0.0,
        0.0,
        99.99999999999868,
        -1.629206793918314e-05,
        0.0,
        0.0,
        0.0,
        0.0,
        1.0
      ],
      "name": "Cube.002"
    },
    {
      "mesh": 1,
      "name": "Cube.002_Material.002_0"
    },
    {
      "children": [
        8
      ],
      "matrix": [
        100.0,
        0.0,
        0.0,
        0.0,
        0.0,
        -1.629206793918314e-05,
        -99.99999999999868,
        0.0,
        0.0,
        99.99999999999868,
        -1.629206793918314e-05,
        0.0,
        0.0,
        0.0,
        0.0,
        1.0
      ],
      "name": "Sphere"
    },
    {
      "mesh": 2,
      "name": "Sphere_Material.001_0"
    },
    {
      "children": [
        10
      ],
      "matrix": [
        100.0,
        0.0,
        0.0,
        0.0,
        0.0,
        -1.629206793918314e-05,
        -99.99999999999868,
        0.0,
        0.0,
        99.99999999999868,
        -1.629206793918314e-05,
        0.0,
        0.0,
        0.0,
        0.0,
        1.0
      ],
      "name": "Sphere.001"
    },
    {
      "mesh": 3,
      "name": "Sphere.001_Material.001_0"
    },
    {
      "children": [
        12
      ],
      "matrix": [
        100.0,
        0.0,
        0.0,
        0.0,
        0.0,
        -1.629206793918314e-05,
        -99.99999999999868,
        0.0,
        0.0,
        99.99999999999868,
        -1.629206793918314e-05,
        0.0,
        0.0,
        0.0,
        0.0,
        1.0
      ],
      "name": "Cube.001"
    },
    {
      "mesh": 4,
      "name": "Cube.001_Material.002_0"
    },
    {
      "children": [
        14
      ],
      "matrix": [
        100.0,
        0.0,
        0.0,
        0.0,
        0.0,
        -1.629206793918314e-05,
        -99.99999999999868,
        0.0,
        0.0,
        99.99999999999868,
        -1.629206793918314e-05,
        0.0,
        0.0,
        0.0,
        0.0,
        1.0
      ],
      "name": "Cube.003"
    },
    {
      "mesh": 5,
      "name": "Cube.003_Material.002_0"
    },
    {
      "children": [
        16
      ],
      "matrix": [
        100.0,
        0.0,
        0.0,
        0.0,
        0.0,
        -1.629206793918314e-05,
        -99.99999999999868,
        0.0,
        0.0,
        99.99999999999868,
        -1.629206793918314e-05,
        0.0,
        0.0,
        0.0,
        0.0,
        1.0
      ],
      "name": "Cube.004"
    },
    {
      "mesh": 6,
      "name": "Cube.004_Material.002_0"
    },
    {
      "children": [
        18
      ],
      "matrix": [
        100.0,
        0.0,
        0.0,
        0.0,
        0.0,
        -1.629206793918314e-05,
        -99.99999999999868,
        0.0,
        0.0,
        99.99999999999868,
        -1.629206793918314e-05,
        0.0,
        0.0,
        0.0,
        0.0,
        1.0
      ],
      "name": "Cube.005"
    },
    {
      "mesh": 7,
      "name": "Cube.005_Material.002_0"
    },
    {
      "children": [
        20
      ],
      "matrix": [
        100.0,
        0.0,
        0.0,
        0.0,
        0.0,
        -1.629206793918314e-05,
        -99.99999999999868,
        0.0,
        0.0,
        99.99999999999868,
        -1.629206793918314e-05,
        0.0,
        0.0,
        0.0,
        0.0,
        1.0
      ],
      "name": "Cube.006"
    },
    {
      "mesh": 8,
      "name": "Cube.006_Material.002_0"
    },
    {
      "children": [
        22
      ],
      "matrix": [
        100.0,
        0.0,
        0.0,
        0.0,
        0.0,
        -1.629206793918314e-05,
        -99.99999999999868,
        0.0,
        0.0,
        99.99999999999868,
        -1.629206793918314e-05,
        0.0,
        0.0,
        0.0,
        0.0,
        1.0
      ],
      "name": "Cube.007"
    },
    {
      "mesh": 9,
      "name": "Cube.007_Material.002_0"
    },
    {
      "children": [
        24
      ],
      "matrix": [
        100.0,
        0.0,
        0.0,
        0.0,
        0.0,
        -1.629206793918314e-05,
        -99.99999999999868,
        0.0,
        0.0,
        99.99999999999868,
        -1.629206793918314e-05,
        0.0,
        0.0,
        0.0,
        0.0,
        1.0
      ],
      "name": "Cube.008"
    },
    {
      "mesh": 10,
      "name": "Cube.008_Material.002_0"
    },
    {
      "children": [
        26
      ],
      "matrix": [
        100.0,
        0.0,
        0.0,
        0.0,
        0.0,
        -1.629206793918314e-05,
        -99.99999999999868,
        0.0,
        0.0,
        99.99999999999868,
        -1.629206793918314e-05,
        0.0,
        0.0,
        0.0,
        0.0,
        1.0
      ],
      "name": "Cube.009"
    },
    {
      "mesh": 11,
      "name": "Cube.009_Material.002_0"
    },
    {
      "children": [
        28
      ],
      "matrix": [
        100.0,
        0.0,
        0.0,
        0.0,
        0.0,
        -1.629206793918314e-05,
        -99.99999999999868,
        0.0,
        0.0,
        99.99999999999868,
        -1.629206793918314e-05,
        0.0,
        0.0,
        0.0,
        0.0,
        1.0
      ],
      "name": "Cube.010"
    },
    {
      "mesh": 12,
      "name": "Cube.010_Material.002_0"
    }
  ],
  "samplers": [
    {
      "magFilter": 9729,
      "minFilter": 9987,
      "wrapS": 10497,
      "wrapT": 10497
    }
  ],
  "scene": 0,
  "scenes": [
    {
      "name": "Sketchfab_Scene",
      "nodes": [
        0
      ]
    }
  ],
  "textures": [
    {
      "sampler": 0,
      "source": 0
    },
    {
      "sampler": 0,
      "source": 1
    },
    {
      "sampler": 0,
      "source": 2
    },
    {
      "sampler": 0,
      "source": 3
    },
    {
      "sampler": 0,
      "source": 4
    },
    {
      "sampler": 0,
      "source": 5
    }
  ]
}
